<svg version="1.1" id="Layer_1" xmlns="http://www.w3.org/2000/svg" xmlns:xlink="http://www.w3.org/1999/xlink" x="0px" y="0px"
	 width="100%" viewBox="0 0 512 512" xml:space="preserve">
<path fill="none" opacity="1.000000" stroke="none" 
	d="
M293.000000,513.000000 
	C195.357040,513.000000 98.214073,513.000000 1.035558,513.000000 
	C1.035558,342.398682 1.035558,171.797348 1.035558,1.098012 
	C171.559647,1.098012 342.119354,1.098012 512.839539,1.098012 
	C512.839539,171.666550 512.839539,342.333252 512.839539,513.000000 
	C439.797333,513.000000 366.648651,513.000000 293.000000,513.000000 
M225.734940,386.809204 
	C220.935623,394.876099 220.101807,404.052002 222.445236,412.435822 
	C230.682724,441.906189 240.002899,471.072662 248.726883,500.409576 
	C250.092484,505.001831 252.147644,508.171143 257.285095,507.963928 
	C262.211121,507.765259 264.715424,504.650543 266.027679,500.177429 
	C272.660248,477.568451 279.316132,454.966248 286.021881,432.378876 
	C288.210266,425.007599 291.176819,417.810455 292.695618,410.312500 
	C294.373627,402.028442 292.427216,393.863617 289.956848,386.038635 
	C291.956879,386.035004 293.956909,386.036133 295.956909,386.026917 
	C302.443634,385.997040 306.220612,383.220612 307.862091,377.257111 
	C310.727203,366.848206 313.582672,356.436646 316.666687,345.208740 
	C324.264801,350.029083 331.484070,354.576263 338.670135,359.175354 
	C350.966309,367.044891 363.193451,375.023438 375.547333,382.800995 
	C381.224854,386.375397 388.976501,381.989563 388.984406,375.313629 
	C389.014862,349.653473 389.047302,323.992920 388.917053,298.333344 
	C388.893585,293.708405 387.545624,289.460785 383.734650,286.149139 
	C376.384644,279.762146 369.339142,273.025543 362.017548,266.604736 
	C356.612152,261.864349 350.890381,257.485718 345.460052,252.772491 
	C341.904083,249.686096 338.044159,246.889374 338.955505,240.946976 
	C340.317841,232.063797 341.551178,223.097321 341.855408,214.132889 
	C342.174622,204.727448 341.495331,195.273178 340.945892,185.858124 
	C340.535858,178.831467 340.497650,171.616714 338.795624,164.863312 
	C333.858948,145.275330 328.966797,125.609589 322.553040,106.478638 
	C315.789062,86.302895 305.651306,67.553558 294.145203,49.582710 
	C284.247498,34.123966 273.745941,19.171555 260.677094,6.181818 
	C257.467590,2.991763 251.324432,2.784904 248.422638,6.180382 
	C242.694977,12.882480 237.222961,19.808136 231.775345,26.743544 
	C212.172134,51.700420 197.532654,79.325531 186.876694,109.205521 
	C176.998276,136.905304 171.727600,165.486435 170.187134,194.708405 
	C169.499863,207.745361 170.640305,220.883514 171.076828,233.971542 
	C171.191315,237.404175 171.981796,240.816528 172.058365,244.247208 
	C172.098480,246.044144 171.858627,248.479233 170.727066,249.567215 
	C163.717453,256.306915 156.456741,262.788544 149.202362,269.269562 
	C144.429489,273.533630 139.543198,277.671478 134.679230,281.832550 
	C127.349731,288.102875 121.211929,294.724701 122.877785,305.689575 
	C123.888901,312.344788 123.896446,319.185211 123.955406,325.945892 
	C124.097794,342.273987 123.920868,358.605103 124.106041,374.932343 
	C124.131775,377.200714 124.938263,379.873566 126.311012,381.636963 
	C130.666855,387.232391 133.819550,387.135040 141.428207,382.035065 
	C159.602966,369.852936 177.796707,357.699127 196.306229,345.317474 
	C200.035400,356.470093 203.542374,366.854309 206.976196,377.262634 
	C209.426453,384.689606 211.162430,385.989655 218.996460,386.005493 
	C221.326889,386.010193 223.657181,386.086060 225.734940,386.809204 
z"/>
<path fill="#60ACFF" opacity="1.000000" stroke="none" 
	d="
M225.987534,386.129303 
	C223.657181,386.086060 221.326889,386.010193 218.996460,386.005493 
	C211.162430,385.989655 209.426453,384.689606 206.976196,377.262634 
	C203.542374,366.854309 200.035400,356.470093 196.306229,345.317474 
	C177.796707,357.699127 159.602966,369.852936 141.428207,382.035065 
	C133.819550,387.135040 130.666855,387.232391 126.311012,381.636963 
	C124.938263,379.873566 124.131775,377.200714 124.106041,374.932343 
	C123.920868,358.605103 124.097794,342.273987 123.955406,325.945892 
	C123.896446,319.185211 123.888901,312.344788 122.877785,305.689575 
	C121.211929,294.724701 127.349731,288.102875 134.679230,281.832550 
	C139.543198,277.671478 144.429489,273.533630 149.202362,269.269562 
	C156.456741,262.788544 163.717453,256.306915 170.727066,249.567215 
	C171.858627,248.479233 172.098480,246.044144 172.058365,244.247208 
	C171.981796,240.816528 171.191315,237.404175 171.076828,233.971542 
	C170.640305,220.883514 169.499863,207.745361 170.187134,194.708405 
	C171.727600,165.486435 176.998276,136.905304 186.876694,109.205521 
	C197.532654,79.325531 212.172134,51.700420 231.775345,26.743544 
	C237.222961,19.808136 242.694977,12.882480 248.422638,6.180382 
	C251.324432,2.784904 257.467590,2.991763 260.677094,6.181818 
	C273.745941,19.171555 284.247498,34.123966 294.145203,49.582710 
	C305.651306,67.553558 315.789062,86.302895 322.553040,106.478638 
	C328.966797,125.609589 333.858948,145.275330 338.795624,164.863312 
	C340.497650,171.616714 340.535858,178.831467 340.945892,185.858124 
	C341.495331,195.273178 342.174622,204.727448 341.855408,214.132889 
	C341.551178,223.097321 340.317841,232.063797 338.955505,240.946976 
	C338.044159,246.889374 341.904083,249.686096 345.460052,252.772491 
	C350.890381,257.485718 356.612152,261.864349 362.017548,266.604736 
	C369.339142,273.025543 376.384644,279.762146 383.734650,286.149139 
	C387.545624,289.460785 388.893585,293.708405 388.917053,298.333344 
	C389.047302,323.992920 389.014862,349.653473 388.984406,375.313629 
	C388.976501,381.989563 381.224854,386.375397 375.547333,382.800995 
	C363.193451,375.023438 350.966309,367.044891 338.670135,359.175354 
	C331.484070,354.576263 324.264801,350.029083 316.666687,345.208740 
	C313.582672,356.436646 310.727203,366.848206 307.862091,377.257111 
	C306.220612,383.220612 302.443634,385.997040 295.956909,386.026917 
	C293.956909,386.036133 291.956879,386.035004 289.110962,385.910980 
	C286.663666,385.462677 285.062408,384.864807 283.460785,384.863922 
	C265.878418,384.854034 248.295822,384.908691 230.714005,385.043701 
	C229.135834,385.055817 227.562912,385.751221 225.987534,386.129303 
M371.748627,350.391388 
	C371.832428,345.951508 372.060822,341.508392 371.961700,337.072601 
	C371.849457,332.049194 371.443481,327.032379 371.019440,321.083923 
	C371.012207,315.095764 370.642334,309.078308 371.122406,303.129486 
	C371.454926,299.008698 369.554016,296.617126 366.787140,294.347321 
	C365.019470,292.897217 363.188477,291.516876 361.495972,289.983704 
	C352.838959,282.141815 344.217773,274.260437 335.545868,266.358093 
	C330.835144,286.855682 326.153687,307.225769 321.447144,327.705048 
	C329.602966,332.948914 337.757324,338.194397 345.914307,343.435791 
	C354.038147,348.655914 362.164581,353.871857 370.775452,359.401459 
	C370.924866,356.178101 371.045135,353.583038 371.748627,350.391388 
M265.980835,319.875000 
	C265.486969,322.689056 266.999237,323.075043 269.383301,323.041992 
	C277.544678,322.928833 285.708618,322.998840 293.871582,322.999664 
	C304.536194,323.000763 304.536621,323.001129 306.967621,312.883545 
	C307.307953,311.467133 307.674164,310.056030 307.974731,308.631134 
	C312.307587,288.088806 317.007965,267.613953 320.810852,246.973801 
	C322.968628,235.262756 324.557556,223.294357 324.744110,211.415833 
	C324.928741,199.656174 323.197205,187.846695 322.005035,176.089615 
	C320.064056,156.947067 315.428040,138.421204 309.231323,120.209511 
	C307.968170,116.497322 306.368774,115.903442 303.057434,115.950531 
	C273.974457,116.364151 244.889801,116.659134 215.805542,116.979301 
	C212.640671,117.014145 209.473846,117.041786 206.310318,116.968964 
	C203.947266,116.914566 202.532913,117.247620 201.827454,120.189621 
	C199.947449,128.029785 196.901917,135.613037 195.332275,143.499924 
	C192.793396,156.256989 190.849655,169.145828 189.085083,182.037949 
	C188.214981,188.395020 188.109711,194.880890 188.011154,201.313873 
	C187.860260,211.163193 187.264420,221.091446 188.230545,230.850235 
	C189.413712,242.801575 191.557098,254.711639 194.105820,266.461578 
	C198.050964,284.649078 202.659683,302.693604 207.127609,320.764008 
	C207.353210,321.676422 208.899918,322.891296 209.843552,322.901978 
	C222.446167,323.044586 235.050934,322.997314 248.005630,322.997314 
	C248.005630,320.686462 248.005844,318.888397 248.005600,317.090332 
	C248.003540,301.763947 247.955490,286.437378 248.024811,271.111328 
	C248.048233,265.931183 251.206406,263.022491 256.425690,262.999969 
	C261.019775,262.980164 264.825378,266.508881 264.989105,271.013611 
	C265.097900,274.006439 265.109314,277.002777 265.034821,280.925385 
	C265.023590,292.058563 264.979828,303.191925 265.038330,314.324738 
	C265.046509,315.884399 265.556030,317.441467 265.980835,319.875000 
M257.060974,27.429699 
	C256.595551,26.659609 256.130127,25.889519 255.376312,24.642296 
	C236.067978,47.260460 220.573608,71.655373 209.301041,98.924065 
	C239.867310,98.924065 270.135284,98.924065 301.528015,98.924065 
	C295.443878,87.421989 290.259552,76.051376 283.670013,65.563660 
	C275.559265,52.654785 266.277069,40.481930 257.060974,27.429699 
M140.999985,321.500061 
	C140.999985,334.456085 140.999985,347.412140 140.999985,360.991882 
	C157.350967,350.457703 173.270782,340.253052 189.082016,329.882904 
	C190.004105,329.278107 190.635635,327.213257 190.394836,326.033569 
	C189.490234,321.601929 188.076294,317.277527 187.018280,312.873291 
	C183.382935,297.740295 179.817383,282.590515 176.246262,267.535858 
	C166.279709,276.410889 156.342026,285.325348 146.323059,294.147491 
	C142.702698,297.335388 140.244965,300.685028 140.881882,306.017944 
	C141.450851,310.782104 141.000534,315.667999 140.999985,321.500061 
M295.532440,356.986145 
	C297.003326,351.443237 298.474213,345.900299 299.973297,340.251129 
	C288.423950,340.251129 277.341003,340.251129 265.730194,340.251129 
	C265.730194,349.567169 265.730194,358.631470 265.730194,367.477264 
	C266.766602,367.802612 267.075958,367.982452 267.386688,367.984863 
	C272.206024,368.022003 277.025482,368.047241 281.844940,368.053314 
	C292.292114,368.066467 292.292114,368.061340 295.532440,356.986145 
M214.070114,343.497467 
	C216.828644,351.891602 219.587189,360.285706 222.252563,368.396301 
	C223.735397,368.621948 224.970993,368.962280 226.209366,368.972717 
	C232.489517,369.025665 238.774643,369.107330 245.046646,368.873535 
	C246.046509,368.836304 247.807175,367.269257 247.830002,366.374146 
	C248.044495,357.963013 247.957382,349.544189 247.957382,340.991333 
	C236.812088,340.991333 226.328064,340.961731 215.845306,341.063965 
	C215.209167,341.070160 214.583221,342.123352 214.070114,343.497467 
z"/>
<path fill="#FDFFFF" opacity="1.000000" stroke="none" 
	d="
M225.861237,386.469238 
	C227.562912,385.751221 229.135834,385.055817 230.714005,385.043701 
	C248.295822,384.908691 265.878418,384.854034 283.460785,384.863922 
	C285.062408,384.864807 286.663666,385.462677 288.655396,385.952209 
	C292.427216,393.863617 294.373627,402.028442 292.695618,410.312500 
	C291.176819,417.810455 288.210266,425.007599 286.021881,432.378876 
	C279.316132,454.966248 272.660248,477.568451 266.027679,500.177429 
	C264.715424,504.650543 262.211121,507.765259 257.285095,507.963928 
	C252.147644,508.171143 250.092484,505.001831 248.726883,500.409576 
	C240.002899,471.072662 230.682724,441.906189 222.445236,412.435822 
	C220.101807,404.052002 220.935623,394.876099 225.861237,386.469238 
M246.537262,432.027344 
	C249.995102,443.636780 253.452942,455.246216 257.188354,467.787598 
	C262.333466,451.213806 267.284241,435.735291 271.891602,420.155273 
	C273.389160,415.091156 274.323151,409.799683 274.921783,404.544617 
	C275.830261,396.569122 271.596008,390.947388 264.926727,387.584991 
	C257.673737,383.928223 250.399582,385.642212 244.733582,391.003448 
	C239.394211,396.055634 237.489761,402.598358 239.925690,410.097443 
	C242.202271,417.105957 244.020645,424.263367 246.537262,432.027344 
z"/>
<path fill="none" opacity="1.000000" stroke="none" 
	d="
M265.164307,279.997559 
	C265.109314,277.002777 265.097900,274.006439 264.989105,271.013611 
	C264.825378,266.508881 261.019775,262.980164 256.425690,262.999969 
	C251.206406,263.022491 248.048233,265.931183 248.024811,271.111328 
	C247.955490,286.437378 248.003540,301.763947 248.005600,317.090332 
	C248.005844,318.888397 248.005630,320.686462 248.005630,322.997314 
	C235.050934,322.997314 222.446167,323.044586 209.843552,322.901978 
	C208.899918,322.891296 207.353210,321.676422 207.127609,320.764008 
	C202.659683,302.693604 198.050964,284.649078 194.105820,266.461578 
	C191.557098,254.711639 189.413712,242.801575 188.230545,230.850235 
	C187.264420,221.091446 187.860260,211.163193 188.011154,201.313873 
	C188.109711,194.880890 188.214981,188.395020 189.085083,182.037949 
	C190.849655,169.145828 192.793396,156.256989 195.332275,143.499924 
	C196.901917,135.613037 199.947449,128.029785 201.827454,120.189621 
	C202.532913,117.247620 203.947266,116.914566 206.310318,116.968964 
	C209.473846,117.041786 212.640671,117.014145 215.805542,116.979301 
	C244.889801,116.659134 273.974457,116.364151 303.057434,115.950531 
	C306.368774,115.903442 307.968170,116.497322 309.231323,120.209511 
	C315.428040,138.421204 320.064056,156.947067 322.005035,176.089615 
	C323.197205,187.846695 324.928741,199.656174 324.744110,211.415833 
	C324.557556,223.294357 322.968628,235.262756 320.810852,246.973801 
	C317.007965,267.613953 312.307587,288.088806 307.974731,308.631134 
	C307.674164,310.056030 307.307953,311.467133 306.967621,312.883545 
	C304.536621,323.001129 304.536194,323.000763 293.871582,322.999664 
	C285.708618,322.998840 277.544678,322.928833 269.383301,323.041992 
	C266.999237,323.075043 265.486969,322.689056 265.976807,318.973602 
	C265.981873,306.760040 266.019592,295.447723 265.963013,284.135895 
	C265.956116,282.755157 265.442902,281.376953 265.164307,279.997559 
M213.990524,194.634506 
	C214.142502,205.504395 219.433044,214.265366 226.946793,221.152069 
	C237.188904,230.539474 249.659866,233.291229 263.643555,231.142395 
	C284.784821,227.893692 301.987244,205.921417 298.297455,182.353714 
	C295.760437,166.149307 275.601318,145.522186 256.330566,146.644440 
	C237.425797,147.745392 224.869583,156.224533 217.004059,172.578232 
	C213.848907,179.138290 211.448135,186.179489 213.990524,194.634506 
z"/>
<path fill="none" opacity="1.000000" stroke="none" 
	d="
M257.281067,27.710331 
	C266.277069,40.481930 275.559265,52.654785 283.670013,65.563660 
	C290.259552,76.051376 295.443878,87.421989 301.528015,98.924065 
	C270.135284,98.924065 239.867310,98.924065 209.301041,98.924065 
	C220.573608,71.655373 236.067978,47.260460 255.376312,24.642296 
	C256.130127,25.889519 256.595551,26.659609 257.281067,27.710331 
z"/>
<path fill="none" opacity="1.000000" stroke="none" 
	d="
M140.999985,321.000122 
	C141.000534,315.667999 141.450851,310.782104 140.881882,306.017944 
	C140.244965,300.685028 142.702698,297.335388 146.323059,294.147491 
	C156.342026,285.325348 166.279709,276.410889 176.246262,267.535858 
	C179.817383,282.590515 183.382935,297.740295 187.018280,312.873291 
	C188.076294,317.277527 189.490234,321.601929 190.394836,326.033569 
	C190.635635,327.213257 190.004105,329.278107 189.082016,329.882904 
	C173.270782,340.253052 157.350967,350.457703 140.999985,360.991882 
	C140.999985,347.412140 140.999985,334.456085 140.999985,321.000122 
z"/>
<path fill="none" opacity="1.000000" stroke="none" 
	d="
M371.165405,350.988007 
	C371.045135,353.583038 370.924866,356.178101 370.775452,359.401459 
	C362.164581,353.871857 354.038147,348.655914 345.914307,343.435791 
	C337.757324,338.194397 329.602966,332.948914 321.447144,327.705048 
	C326.153687,307.225769 330.835144,286.855682 335.545868,266.358093 
	C344.217773,274.260437 352.838959,282.141815 361.495972,289.983704 
	C363.188477,291.516876 365.019470,292.897217 366.787140,294.347321 
	C369.554016,296.617126 371.454926,299.008698 371.122406,303.129486 
	C370.642334,309.078308 371.012207,315.095764 371.018005,322.012085 
	C371.066162,332.289520 371.115784,341.638763 371.165405,350.988007 
z"/>
<path fill="none" opacity="1.000000" stroke="none" 
	d="
M295.303986,357.333893 
	C292.292114,368.061340 292.292114,368.066467 281.844940,368.053314 
	C277.025482,368.047241 272.206024,368.022003 267.386688,367.984863 
	C267.075958,367.982452 266.766602,367.802612 265.730194,367.477264 
	C265.730194,358.631470 265.730194,349.567169 265.730194,340.251129 
	C277.341003,340.251129 288.423950,340.251129 299.973297,340.251129 
	C298.474213,345.900299 297.003326,351.443237 295.303986,357.333893 
z"/>
<path fill="none" opacity="1.000000" stroke="none" 
	d="
M214.011322,343.093414 
	C214.583221,342.123352 215.209167,341.070160 215.845306,341.063965 
	C226.328064,340.961731 236.812088,340.991333 247.957382,340.991333 
	C247.957382,349.544189 248.044495,357.963013 247.830002,366.374146 
	C247.807175,367.269257 246.046509,368.836304 245.046646,368.873535 
	C238.774643,369.107330 232.489517,369.025665 226.209366,368.972717 
	C224.970993,368.962280 223.735397,368.621948 222.252563,368.396301 
	C219.587189,360.285706 216.828644,351.891602 214.011322,343.093414 
z"/>
<path fill="#0000FF" opacity="1.000000" stroke="none" 
	d="
M265.099579,280.461487 
	C265.442902,281.376953 265.956116,282.755157 265.963013,284.135895 
	C266.019592,295.447723 265.981873,306.760040 265.903137,318.535950 
	C265.556030,317.441467 265.046509,315.884399 265.038330,314.324738 
	C264.979828,303.191925 265.023590,292.058563 265.099579,280.461487 
z"/>
<path fill="#00FFFF" opacity="1.000000" stroke="none" 
	d="
M371.457031,350.689697 
	C371.115784,341.638763 371.066162,332.289520 371.090881,322.476501 
	C371.443481,327.032379 371.849457,332.049194 371.961700,337.072601 
	C372.060822,341.508392 371.832428,345.951508 371.457031,350.689697 
z"/>
<path fill="none" opacity="1.000000" stroke="none" 
	d="
M246.288971,431.691284 
	C244.020645,424.263367 242.202271,417.105957 239.925690,410.097443 
	C237.489761,402.598358 239.394211,396.055634 244.733582,391.003448 
	C250.399582,385.642212 257.673737,383.928223 264.926727,387.584991 
	C271.596008,390.947388 275.830261,396.569122 274.921783,404.544617 
	C274.323151,409.799683 273.389160,415.091156 271.891602,420.155273 
	C267.284241,435.735291 262.333466,451.213806 257.188354,467.787598 
	C253.452942,455.246216 249.995102,443.636780 246.288971,431.691284 
z"/>
<path fill="#60ACFF" opacity="1.000000" stroke="none" 
	d="
M213.958069,194.184967 
	C211.448135,186.179489 213.848907,179.138290 217.004059,172.578232 
	C224.869583,156.224533 237.425797,147.745392 256.330566,146.644440 
	C275.601318,145.522186 295.760437,166.149307 298.297455,182.353714 
	C301.987244,205.921417 284.784821,227.893692 263.643555,231.142395 
	C249.659866,233.291229 237.188904,230.539474 226.946793,221.152069 
	C219.433044,214.265366 214.142502,205.504395 213.958069,194.184967 
M280.996307,184.945374 
	C280.562469,183.389786 280.205078,181.807999 279.682678,180.282730 
	C275.417511,167.829483 260.994995,161.004944 247.708847,165.126358 
	C235.455460,168.927399 227.702423,183.572968 231.453598,195.966949 
	C235.262405,208.551331 244.129669,214.165253 255.376419,214.632492 
	C260.882263,214.861221 267.689514,212.588623 271.880463,209.048264 
	C278.563293,203.402832 282.285309,195.275940 280.996307,184.945374 
z"/>
<path fill="none" opacity="1.000000" stroke="none" 
	d="
M280.998566,185.393005 
	C282.285309,195.275940 278.563293,203.402832 271.880463,209.048264 
	C267.689514,212.588623 260.882263,214.861221 255.376419,214.632492 
	C244.129669,214.165253 235.262405,208.551331 231.453598,195.966949 
	C227.702423,183.572968 235.455460,168.927399 247.708847,165.126358 
	C260.994995,161.004944 275.417511,167.829483 279.682678,180.282730 
	C280.205078,181.807999 280.562469,183.389786 280.998566,185.393005 
z"/>
</svg>